<?xml version="1.0" encoding="UTF-8"?>
<svg width="100px" height="100px" viewBox="0 0 100 100" xmlns="http://www.w3.org/2000/svg" xmlns:xlink="http://www.w3.org/1999/xlink" version="1.1">
 <!-- Generated by Pixelmator Pro 2.1.2 -->
 <path id="楕円" d="M100 50 C100 22.386 77.614 0 50 0 22.386 0 0 22.386 0 50 0 77.614 22.386 100 50 100 77.614 100 100 77.614 100 50 Z" fill="#d5cd4c" fill-opacity="1" stroke="none"/>
 <path id="楕円-1" d="M91 50 C91 27.356 72.644 9 50 9 27.356 9 9 27.356 9 50 9 72.644 27.356 91 50 91 72.644 91 91 72.644 91 50 Z" fill="#414141" fill-opacity="1" stroke="none"/>
 <path id="楕円-2" d="M87 50 C87 29.565 70.435 13 50 13 29.565 13 13 29.565 13 50 13 70.435 29.565 87 50 87 70.435 87 87 70.435 87 50 Z" fill="#ffee68" fill-opacity="1" stroke="none"/>
</svg>
